<svg xmlns="http://www.w3.org/2000/svg" xmlns:xlink="http://www.w3.org/1999/xlink" width="500" zoomAndPan="magnify" viewBox="0 0 375 374.999991" height="500" preserveAspectRatio="xMidYMid meet" version="1.0"><metadata><ContainsAiGeneratedContent>Yes</ContainsAiGeneratedContent></metadata><defs><g/><clipPath id="75cc3c0b7a"><path d="M 16.316406 141.183594 L 131.339844 141.183594 L 131.339844 221.699219 L 16.316406 221.699219 Z M 16.316406 141.183594 " clip-rule="nonzero"/></clipPath><clipPath id="99cdc4e8f6"><path d="M 47 167 L 69 167 L 69 198 L 47 198 Z M 47 167 " clip-rule="nonzero"/></clipPath><clipPath id="4059ad5295"><path d="M 36.429688 177.941406 L 63.210938 160.699219 L 80.453125 187.480469 L 53.671875 204.722656 Z M 36.429688 177.941406 " clip-rule="nonzero"/></clipPath><clipPath id="bc21ff0f73"><path d="M 62.910156 160.894531 L 36.128906 178.136719 L 53.371094 204.917969 L 80.152344 187.675781 Z M 62.910156 160.894531 " clip-rule="nonzero"/></clipPath></defs><path fill="#737373" d="M 43.550781 203.8125 C 49.097656 207.035156 55.34375 207.976562 61.199219 206.917969 C 56.414062 207.332031 51.460938 206.328125 46.996094 203.734375 C 35.453125 197.023438 31.535156 182.226562 38.246094 170.6875 C 44.953125 159.144531 59.75 155.226562 71.289062 161.933594 C 75.757812 164.53125 79.082031 168.339844 81.089844 172.699219 C 79.109375 167.089844 75.203125 162.125 69.65625 158.902344 C 57.253906 151.691406 41.355469 155.902344 34.148438 168.304688 C 26.9375 180.707031 31.148438 196.605469 43.550781 203.8125 " fill-opacity="1" fill-rule="nonzero"/><g clip-path="url(#75cc3c0b7a)"><path fill="#ff007c" d="M 94.667969 169.949219 L 93.269531 164.667969 L 87.890625 166.089844 C 86.613281 166.429688 85.265625 165.878906 84.589844 164.738281 C 83.308594 162.574219 81.769531 160.546875 79.988281 158.699219 C 79.070312 157.75 78.894531 156.304688 79.558594 155.164062 L 82.351562 150.355469 L 70.699219 143.582031 L 67.90625 148.386719 C 67.242188 149.53125 65.898438 150.097656 64.621094 149.769531 C 62.132812 149.128906 59.609375 148.796875 57.09375 148.757812 C 55.773438 148.734375 54.625 147.835938 54.285156 146.558594 L 52.859375 141.179688 L 39.832031 144.632812 L 41.253906 150.007812 C 41.59375 151.289062 41.039062 152.636719 39.902344 153.308594 C 37.738281 154.589844 35.707031 156.128906 33.863281 157.914062 C 32.914062 158.832031 31.464844 159.003906 30.324219 158.339844 L 25.519531 155.546875 L 18.746094 167.203125 L 23.550781 169.996094 C 24.691406 170.65625 25.257812 172 24.929688 173.28125 C 24.292969 175.765625 23.960938 178.289062 23.917969 180.804688 C 23.898438 182.128906 23 183.277344 21.71875 183.617188 L 16.34375 185.039062 L 19.792969 198.070312 L 25.167969 196.644531 C 26.449219 196.308594 27.796875 196.859375 28.472656 198 C 29.75 200.164062 31.289062 202.195312 33.074219 204.039062 C 33.992188 204.988281 34.164062 206.433594 33.5 207.574219 L 30.707031 212.382812 L 42.363281 219.15625 L 45.15625 214.351562 C 45.820312 213.207031 47.160156 212.640625 48.441406 212.96875 C 50.929688 213.609375 53.453125 213.941406 55.964844 213.980469 C 57.289062 214.003906 58.4375 214.902344 58.777344 216.179688 L 60.199219 221.558594 L 73.230469 218.105469 L 71.808594 212.730469 C 71.46875 211.449219 72.023438 210.101562 73.160156 209.429688 C 75.324219 208.148438 77.355469 206.609375 79.199219 204.824219 C 79.363281 204.664062 79.546875 204.53125 79.734375 204.414062 L 73.371094 204.414062 C 64.503906 210.890625 52.292969 211.914062 42.1875 206.042969 C 28.5625 198.121094 23.9375 180.652344 31.855469 167.027344 C 39.777344 153.398438 57.246094 148.773438 70.875 156.695312 C 77.589844 160.597656 82.117188 166.820312 84.035156 173.757812 L 131.542969 173.757812 L 94.667969 169.949219 " fill-opacity="1" fill-rule="nonzero"/></g><g clip-path="url(#99cdc4e8f6)"><g clip-path="url(#4059ad5295)"><g clip-path="url(#bc21ff0f73)"><path fill="#ffffff" d="M 63.917969 167.949219 C 65.296875 167.0625 67.136719 167.460938 68.023438 168.839844 C 68.914062 170.21875 68.515625 172.058594 67.132812 172.945312 C 65.972656 173.695312 64.484375 173.527344 63.511719 172.632812 L 52.105469 179.976562 C 51.015625 180.679688 50.699219 182.136719 51.402344 183.226562 C 52.101562 184.316406 53.5625 184.632812 54.652344 183.929688 L 60.972656 179.859375 C 62.820312 178.671875 65.285156 179.207031 66.476562 181.050781 C 67.664062 182.898438 67.128906 185.363281 65.28125 186.550781 L 53.703125 194.007812 C 54.082031 195.246094 53.613281 196.632812 52.46875 197.367188 C 51.089844 198.253906 49.25 197.855469 48.363281 196.476562 C 47.472656 195.097656 47.871094 193.257812 49.253906 192.371094 C 50.394531 191.636719 51.851562 191.78125 52.820312 192.636719 L 64.402344 185.183594 C 65.492188 184.480469 65.804688 183.023438 65.105469 181.933594 C 64.402344 180.84375 62.945312 180.527344 61.855469 181.230469 L 55.53125 185.300781 C 53.6875 186.488281 51.21875 185.953125 50.03125 184.109375 C 48.84375 182.261719 49.378906 179.796875 51.222656 178.605469 L 62.664062 171.242188 C 62.324219 170.019531 62.796875 168.671875 63.917969 167.949219 Z M 63.917969 167.949219 " fill-opacity="1" fill-rule="nonzero"/></g></g></g><g fill="#ffffff" fill-opacity="1"><g transform="translate(82.116912, 199.765142)"><g><path d="M 21.640625 -1 C 21.703125 -0.882812 21.734375 -0.753906 21.734375 -0.609375 C 21.734375 -0.460938 21.664062 -0.320312 21.53125 -0.1875 C 21.40625 -0.0625 21.25 0 21.0625 0 L 14.8125 0 C 14.175781 0 13.738281 -0.273438 13.5 -0.828125 L 10.875 -6.65625 L 9.625 -6.65625 L 9.625 -0.828125 C 9.625 -0.597656 9.539062 -0.398438 9.375 -0.234375 C 9.207031 -0.078125 9.015625 0 8.796875 0 L 2.8125 0 C 2.582031 0 2.382812 -0.078125 2.21875 -0.234375 C 2.0625 -0.398438 1.984375 -0.597656 1.984375 -0.828125 L 1.984375 -20.546875 C 1.984375 -20.773438 2.0625 -20.96875 2.21875 -21.125 C 2.382812 -21.289062 2.582031 -21.375 2.8125 -21.375 L 11.84375 -21.375 C 14.78125 -21.375 17.070312 -20.71875 18.71875 -19.40625 C 20.363281 -18.09375 21.1875 -16.207031 21.1875 -13.75 C 21.1875 -11.300781 20.085938 -9.375 17.890625 -7.96875 Z M 9.625 -15.6875 L 9.625 -12.453125 L 11.84375 -12.453125 C 12.289062 -12.453125 12.632812 -12.597656 12.875 -12.890625 C 13.125 -13.191406 13.25 -13.566406 13.25 -14.015625 C 13.25 -14.460938 13.128906 -14.851562 12.890625 -15.1875 C 12.660156 -15.519531 12.3125 -15.6875 11.84375 -15.6875 Z M 9.625 -15.6875 "/></g></g></g><g fill="#ffffff" fill-opacity="1"><g transform="translate(107.942592, 199.765142)"><g><path d="M 9.3125 -5.953125 L 18.71875 -5.953125 C 18.9375 -5.953125 19.128906 -5.867188 19.296875 -5.703125 C 19.460938 -5.546875 19.546875 -5.351562 19.546875 -5.125 L 19.546875 -0.828125 C 19.546875 -0.597656 19.460938 -0.398438 19.296875 -0.234375 C 19.128906 -0.078125 18.9375 0 18.71875 0 L 2.8125 0 C 2.582031 0 2.382812 -0.078125 2.21875 -0.234375 C 2.0625 -0.398438 1.984375 -0.597656 1.984375 -0.828125 L 1.984375 -20.546875 C 1.984375 -20.773438 2.0625 -20.96875 2.21875 -21.125 C 2.382812 -21.289062 2.582031 -21.375 2.8125 -21.375 L 18.46875 -21.375 C 18.695312 -21.375 18.890625 -21.289062 19.046875 -21.125 C 19.210938 -20.96875 19.296875 -20.773438 19.296875 -20.546875 L 19.296875 -16.25 C 19.296875 -16.019531 19.210938 -15.820312 19.046875 -15.65625 C 18.890625 -15.5 18.695312 -15.421875 18.46875 -15.421875 L 9.3125 -15.421875 L 9.3125 -13.5 L 17.796875 -13.5 C 18.023438 -13.5 18.21875 -13.414062 18.375 -13.25 C 18.539062 -13.082031 18.625 -12.890625 18.625 -12.671875 L 18.625 -8.703125 C 18.625 -8.472656 18.539062 -8.273438 18.375 -8.109375 C 18.21875 -7.953125 18.023438 -7.875 17.796875 -7.875 L 9.3125 -7.875 Z M 9.3125 -5.953125 "/></g></g></g><g fill="#ffffff" fill-opacity="1"><g transform="translate(132.333589, 199.765142)"><g><path d="M 9.734375 -6.265625 L 18.203125 -6.265625 C 18.421875 -6.265625 18.609375 -6.179688 18.765625 -6.015625 C 18.929688 -5.847656 19.015625 -5.65625 19.015625 -5.4375 L 19.015625 -0.828125 C 19.015625 -0.597656 18.929688 -0.398438 18.765625 -0.234375 C 18.609375 -0.078125 18.421875 0 18.203125 0 L 2.8125 0 C 2.582031 0 2.382812 -0.078125 2.21875 -0.234375 C 2.0625 -0.398438 1.984375 -0.597656 1.984375 -0.828125 L 1.984375 -20.546875 C 1.984375 -20.773438 2.0625 -20.96875 2.21875 -21.125 C 2.382812 -21.289062 2.582031 -21.375 2.8125 -21.375 L 8.921875 -21.375 C 9.140625 -21.375 9.328125 -21.289062 9.484375 -21.125 C 9.648438 -20.96875 9.734375 -20.773438 9.734375 -20.546875 Z M 9.734375 -6.265625 "/></g></g></g><g fill="#ffffff" fill-opacity="1"><g transform="translate(155.289903, 199.765142)"><g><path d="M 8.671875 -21.375 L 15.296875 -21.375 C 16.023438 -21.375 16.484375 -21.035156 16.671875 -20.359375 L 23.484375 -0.890625 C 23.503906 -0.828125 23.515625 -0.726562 23.515625 -0.59375 C 23.515625 -0.457031 23.445312 -0.320312 23.3125 -0.1875 C 23.175781 -0.0625 23.019531 0 22.84375 0 L 17.1875 0 C 16.570312 0 16.175781 -0.253906 16 -0.765625 L 15.265625 -2.78125 L 8.703125 -2.78125 L 7.96875 -0.765625 C 7.78125 -0.253906 7.382812 0 6.78125 0 L 1.125 0 C 0.945312 0 0.789062 -0.0625 0.65625 -0.1875 C 0.519531 -0.320312 0.453125 -0.457031 0.453125 -0.59375 C 0.453125 -0.726562 0.460938 -0.828125 0.484375 -0.890625 L 7.296875 -20.359375 C 7.484375 -21.035156 7.941406 -21.375 8.671875 -21.375 Z M 10.265625 -8.734375 L 13.703125 -8.734375 L 11.96875 -14.40625 Z M 10.265625 -8.734375 "/></g></g></g><g fill="#ffffff" fill-opacity="1"><g transform="translate(182.428178, 199.765142)"><g><path d="M 14.046875 0 L 8.0625 0 C 7.832031 0 7.632812 -0.078125 7.46875 -0.234375 C 7.3125 -0.398438 7.234375 -0.597656 7.234375 -0.828125 L 7.234375 -6.84375 L 0.359375 -20.421875 C 0.328125 -20.503906 0.3125 -20.613281 0.3125 -20.75 C 0.3125 -20.894531 0.375 -21.035156 0.5 -21.171875 C 0.632812 -21.304688 0.796875 -21.375 0.984375 -21.375 L 6.71875 -21.375 C 7.320312 -21.375 7.75 -21.117188 8 -20.609375 L 11.046875 -14.46875 L 14.109375 -20.609375 C 14.347656 -21.117188 14.773438 -21.375 15.390625 -21.375 L 21.125 -21.375 C 21.3125 -21.375 21.46875 -21.304688 21.59375 -21.171875 C 21.726562 -21.035156 21.796875 -20.894531 21.796875 -20.75 C 21.796875 -20.613281 21.773438 -20.503906 21.734375 -20.421875 L 14.875 -6.84375 L 14.875 -0.828125 C 14.875 -0.597656 14.789062 -0.398438 14.625 -0.234375 C 14.457031 -0.078125 14.265625 0 14.046875 0 Z M 14.046875 0 "/></g></g></g><g fill="#ffffff" fill-opacity="1"><g transform="translate(207.704411, 199.765142)"><g><path d="M 2.65625 -6.96875 L 7.96875 -6.96875 C 8.1875 -6.96875 8.378906 -6.882812 8.546875 -6.71875 C 8.710938 -6.550781 8.796875 -6.359375 8.796875 -6.140625 L 8.796875 -0.828125 C 8.796875 -0.597656 8.710938 -0.398438 8.546875 -0.234375 C 8.378906 -0.078125 8.1875 0 7.96875 0 L 2.65625 0 C 2.4375 0 2.242188 -0.078125 2.078125 -0.234375 C 1.910156 -0.398438 1.828125 -0.597656 1.828125 -0.828125 L 1.828125 -6.140625 C 1.828125 -6.359375 1.910156 -6.550781 2.078125 -6.71875 C 2.242188 -6.882812 2.4375 -6.96875 2.65625 -6.96875 Z M 2.65625 -6.96875 "/></g></g></g><g fill="#ffffff" fill-opacity="1"><g transform="translate(221.503148, 199.765142)"><g><path d="M 1.734375 -21.375 L 19.625 -21.375 C 19.851562 -21.375 20.046875 -21.289062 20.203125 -21.125 C 20.367188 -20.96875 20.453125 -20.773438 20.453125 -20.546875 L 20.453125 -15.625 C 20.453125 -15.40625 20.367188 -15.210938 20.203125 -15.046875 C 20.046875 -14.890625 19.851562 -14.8125 19.625 -14.8125 L 14.5625 -14.8125 L 14.5625 -0.828125 C 14.5625 -0.597656 14.476562 -0.398438 14.3125 -0.234375 C 14.15625 -0.078125 13.960938 0 13.734375 0 L 7.625 0 C 7.40625 0 7.210938 -0.078125 7.046875 -0.234375 C 6.890625 -0.398438 6.8125 -0.597656 6.8125 -0.828125 L 6.8125 -14.8125 L 1.734375 -14.8125 C 1.515625 -14.8125 1.320312 -14.890625 1.15625 -15.046875 C 1 -15.210938 0.921875 -15.40625 0.921875 -15.625 L 0.921875 -20.546875 C 0.921875 -20.773438 1 -20.96875 1.15625 -21.125 C 1.320312 -21.289062 1.515625 -21.375 1.734375 -21.375 Z M 1.734375 -21.375 "/></g></g></g><g fill="#ffffff" fill-opacity="1"><g transform="translate(246.046777, 199.765142)"><g><path d="M 4.171875 -19.40625 C 6.035156 -20.914062 8.503906 -21.671875 11.578125 -21.671875 C 14.648438 -21.671875 17.113281 -20.910156 18.96875 -19.390625 C 20.832031 -17.878906 21.765625 -15.75 21.765625 -13 L 21.765625 -8.25 C 21.765625 -5.457031 20.84375 -3.332031 19 -1.875 C 17.164062 -0.414062 14.691406 0.3125 11.578125 0.3125 C 8.460938 0.3125 5.984375 -0.414062 4.140625 -1.875 C 2.296875 -3.332031 1.375 -5.457031 1.375 -8.25 L 1.375 -13 C 1.375 -15.769531 2.304688 -17.90625 4.171875 -19.40625 Z M 9.921875 -6.25 C 10.328125 -5.84375 10.875 -5.640625 11.5625 -5.640625 C 12.257812 -5.640625 12.8125 -5.84375 13.21875 -6.25 C 13.625 -6.664062 13.828125 -7.289062 13.828125 -8.125 L 13.828125 -13.25 C 13.828125 -14.0625 13.625 -14.675781 13.21875 -15.09375 C 12.8125 -15.507812 12.257812 -15.71875 11.5625 -15.71875 C 10.875 -15.71875 10.328125 -15.507812 9.921875 -15.09375 C 9.515625 -14.675781 9.3125 -14.0625 9.3125 -13.25 L 9.3125 -8.125 C 9.3125 -7.289062 9.515625 -6.664062 9.921875 -6.25 Z M 9.921875 -6.25 "/></g></g></g><g fill="#ffffff" fill-opacity="1"><g transform="translate(272.360871, 199.765142)"><g><path d="M 4.171875 -19.40625 C 6.035156 -20.914062 8.503906 -21.671875 11.578125 -21.671875 C 14.648438 -21.671875 17.113281 -20.910156 18.96875 -19.390625 C 20.832031 -17.878906 21.765625 -15.75 21.765625 -13 L 21.765625 -8.25 C 21.765625 -5.457031 20.84375 -3.332031 19 -1.875 C 17.164062 -0.414062 14.691406 0.3125 11.578125 0.3125 C 8.460938 0.3125 5.984375 -0.414062 4.140625 -1.875 C 2.296875 -3.332031 1.375 -5.457031 1.375 -8.25 L 1.375 -13 C 1.375 -15.769531 2.304688 -17.90625 4.171875 -19.40625 Z M 9.921875 -6.25 C 10.328125 -5.84375 10.875 -5.640625 11.5625 -5.640625 C 12.257812 -5.640625 12.8125 -5.84375 13.21875 -6.25 C 13.625 -6.664062 13.828125 -7.289062 13.828125 -8.125 L 13.828125 -13.25 C 13.828125 -14.0625 13.625 -14.675781 13.21875 -15.09375 C 12.8125 -15.507812 12.257812 -15.71875 11.5625 -15.71875 C 10.875 -15.71875 10.328125 -15.507812 9.921875 -15.09375 C 9.515625 -14.675781 9.3125 -14.0625 9.3125 -13.25 L 9.3125 -8.125 C 9.3125 -7.289062 9.515625 -6.664062 9.921875 -6.25 Z M 9.921875 -6.25 "/></g></g></g><g fill="#ffffff" fill-opacity="1"><g transform="translate(298.674965, 199.765142)"><g><path d="M 9.734375 -6.265625 L 18.203125 -6.265625 C 18.421875 -6.265625 18.609375 -6.179688 18.765625 -6.015625 C 18.929688 -5.847656 19.015625 -5.65625 19.015625 -5.4375 L 19.015625 -0.828125 C 19.015625 -0.597656 18.929688 -0.398438 18.765625 -0.234375 C 18.609375 -0.078125 18.421875 0 18.203125 0 L 2.8125 0 C 2.582031 0 2.382812 -0.078125 2.21875 -0.234375 C 2.0625 -0.398438 1.984375 -0.597656 1.984375 -0.828125 L 1.984375 -20.546875 C 1.984375 -20.773438 2.0625 -20.96875 2.21875 -21.125 C 2.382812 -21.289062 2.582031 -21.375 2.8125 -21.375 L 8.921875 -21.375 C 9.140625 -21.375 9.328125 -21.289062 9.484375 -21.125 C 9.648438 -20.96875 9.734375 -20.773438 9.734375 -20.546875 Z M 9.734375 -6.265625 "/></g></g></g><g fill="#ffffff" fill-opacity="1"><g transform="translate(321.631282, 199.765142)"><g><path d="M 1.4375 -14.65625 C 1.4375 -16.726562 2.296875 -18.414062 4.015625 -19.71875 C 5.734375 -21.019531 7.988281 -21.671875 10.78125 -21.671875 C 13.582031 -21.671875 15.875 -20.988281 17.65625 -19.625 C 19.4375 -18.269531 20.328125 -16.847656 20.328125 -15.359375 C 20.328125 -15.171875 20.257812 -15.007812 20.125 -14.875 C 20 -14.75 19.851562 -14.6875 19.6875 -14.6875 L 13.59375 -14.6875 C 13.125 -14.6875 12.691406 -14.859375 12.296875 -15.203125 C 11.910156 -15.546875 11.394531 -15.71875 10.75 -15.71875 C 9.769531 -15.71875 9.28125 -15.4375 9.28125 -14.875 C 9.28125 -14.5625 9.519531 -14.300781 10 -14.09375 C 10.476562 -13.894531 11.367188 -13.71875 12.671875 -13.5625 C 15.703125 -13.164062 17.863281 -12.453125 19.15625 -11.421875 C 20.445312 -10.398438 21.09375 -8.847656 21.09375 -6.765625 C 21.09375 -4.679688 20.140625 -2.976562 18.234375 -1.65625 C 16.335938 -0.34375 13.851562 0.3125 10.78125 0.3125 C 7.707031 0.3125 5.296875 -0.316406 3.546875 -1.578125 C 1.796875 -2.847656 0.921875 -4.390625 0.921875 -6.203125 C 0.921875 -6.378906 0.984375 -6.535156 1.109375 -6.671875 C 1.242188 -6.804688 1.40625 -6.875 1.59375 -6.875 L 7.390625 -6.875 C 7.816406 -6.875 8.289062 -6.664062 8.8125 -6.25 C 9.332031 -5.84375 10.046875 -5.640625 10.953125 -5.640625 C 12.484375 -5.640625 13.25 -5.925781 13.25 -6.5 C 13.25 -6.863281 12.972656 -7.140625 12.421875 -7.328125 C 11.878906 -7.523438 10.84375 -7.726562 9.3125 -7.9375 C 4.0625 -8.625 1.4375 -10.863281 1.4375 -14.65625 Z M 1.4375 -14.65625 "/></g></g></g></svg>